PathFileType	4	(X/Y/Z)	C:\Users\MAHE\Documents\generic-specific-tibial-stress-mtlb\PublicDataset\P01\Gait\WBDS01static1.trc
DataRate	CameraRate	NumFrames	NumMarkers	Units	OrigDataRate	OrigDataStartFrame	OrigNumFrames
150.000000	150.000000	8	28	mm	150.000000	75	150
Frame#	Time	L.Ankle			L.Ankle.Medial			L.ASIS			L.GTR			L.Heel			L.HF			L.Iliac.Crest			L.Knee			L.Knee.Medial			L.MT1			L.MT2			L.MT5			L.PSIS			L.TT			R.Ankle			R.Ankle.Medial			R.ASIS			R.GTR			R.Heel			R.HF			R.Iliac.Crest			R.Knee			R.Knee.Medial			R.MT1			R.MT2			R.MT5			R.PSIS			R.TT			
		X1	Y1	Z1	X2	Y2	Z2	X3	Y3	Z3	X4	Y4	Z4	X5	Y5	Z5	X6	Y6	Z6	X7	Y7	Z7	X8	Y8	Z8	X9	Y9	Z9	X10	Y10	Z10	X11	Y11	Z11	X12	Y12	Z12	X13	Y13	Z13	X14	Y14	Z14	X15	Y15	Z15	X16	Y16	Z16	X17	Y17	Z17	X18	Y18	Z18	X19	Y19	Z19	X20	Y20	Z20	X21	Y21	Z21	X22	Y22	Z22	X23	Y23	Z23	X24	Y24	Z24	X25	Y25	Z25	X26	Y26	Z26	X27	Y27	Z27	X28	Y28	Z28	

76	0.5	691.0728759765625	75.81247711181641	1042.859497070313	709.9637451171875	87.01570129394531	1127.595581054688	805.2900390625	955.3702392578125	1085.291381835938	715.9019165039063	880.0471801757813	1040.383911132813	635.8014526367188	47.52877044677734	1083.501098632813	699.5394287109375	432.632568359375	1043.464111328125	718.9813232421875	1033.038452148438	1046.916381835938	719.1767578125	495.0705261230469	1052.669311523438	723.6432495117188	486.4320373535156	1179.219970703125	841.39892578125	41.04319000244141	1101.776977539063	841.8771362304688	35.33888244628906	1072.976318359375	814.697265625	28.79778861999512	1021.601257324219	615.553955078125	1002.973388671875	1194.211547851563	759.0940551757813	419.9682312011719	1087.099853515625	689.2603759765625	72.88368988037109	1399.38818359375	705.8148193359375	91.73300933837891	1314.282348632813	808.98486328125	954.3936157226563	1363.662963867188	705.5220947265625	888.1412963867188	1405.13037109375	636.85205078125	49.61014175415039	1349.51220703125	712.2489624023438	440.1802368164063	1404.088500976563	728.3887939453125	1032.708618164063	1404.241943359375	729.0912475585938	495.8119506835938	1395.0224609375	730.6329956054688	481.6672973632813	1270.373779296875	842.2877197265625	43.31748962402344	1341.92236328125	842.25439453125	38.19741821289063	1364.93408203125	810.302978515625	31.82371520996094	1416.019287109375	617.4185180664063	1000.986999511719	1264.27099609375	768.472412109375	423.4968566894531	1347.450439453125	
77	0.5066666666666667	691.0718383789063	75.82135009765625	1042.847412109375	709.9744873046875	87.00697326660156	1127.593383789063	805.3760375976563	955.3739624023438	1085.285888671875	715.9949951171875	880.0482788085938	1040.369506835938	635.8016357421875	47.53354644775391	1083.499267578125	699.590087890625	432.635009765625	1043.452514648438	719.0969848632813	1033.041137695313	1046.914916992188	719.2468872070313	495.0682373046875	1052.65966796875	723.7113647460938	486.4525756835938	1179.219116210938	841.4012451171875	41.03473281860352	1101.780029296875	841.883544921875	35.33696365356445	1072.97314453125	814.7048950195313	28.80448150634766	1021.599609375	615.6469116210938	1002.982666015625	1194.181030273438	759.1576538085938	419.9524230957031	1087.090087890625	689.2866821289063	72.87942504882813	1399.377197265625	705.8271484375	91.74701690673828	1314.273071289063	809.0496826171875	954.3956298828125	1363.650634765625	705.5781860351563	888.1548461914063	1405.116333007813	636.862548828125	49.61498260498047	1349.507690429688	712.29443359375	440.1979064941406	1404.0771484375	728.470947265625	1032.717163085938	1404.2197265625	729.1326293945313	495.8054809570313	1395.015014648438	730.687744140625	481.6634216308594	1270.371948242188	842.2930908203125	43.30934143066406	1341.915893554688	842.2608032226563	38.18787384033203	1364.939208984375	809.9800415039063	31.66424751281738	1416.164184570313	617.4909057617188	1000.997741699219	1264.261962890625	768.5035400390625	423.4726257324219	1347.447631835938	
78	0.5133333333333334	691.0703125	75.81679534912109	1042.856079101563	709.9721069335938	87.00554656982422	1127.602294921875	805.4408569335938	955.3878173828125	1085.291137695313	716.0925903320313	880.0519409179688	1040.355712890625	635.7921752929688	47.54119491577148	1083.498168945313	699.6610107421875	432.6380615234375	1043.429321289063	719.2190551757813	1033.033081054688	1046.897583007813	719.3395385742188	495.06982421875	1052.646484375	723.7440795898438	486.4164733886719	1179.197509765625	841.3984985351563	41.03267669677734	1101.780029296875	841.8807983398438	35.32261276245117	1072.980102539063	814.698974609375	28.80468940734863	1021.602722167969	615.743896484375	1002.98779296875	1194.151489257813	759.2363891601563	419.9276733398438	1087.081420898438	689.2909545898438	72.88483428955078	1399.37060546875	705.8413696289063	91.73814392089844	1314.26904296875	809.1143188476563	954.4014282226563	1363.6318359375	705.6331176757813	888.1532592773438	1405.093017578125	636.8583984375	49.6214485168457	1349.505004882813	712.3240356445313	440.1934204101563	1404.070190429688	728.5278930664063	1032.741455078125	1404.180419921875	729.1691284179688	495.8037109375	1395.015502929688	730.749755859375	481.6533813476563	1270.373046875	842.300048828125	43.30350875854492	1341.906616210938	842.4391479492188	38.04547882080078	1365.0126953125	809.9869384765625	31.65295600891113	1416.162475585938	617.5681762695313	1000.99072265625	1264.197998046875	768.5371704101563	423.4558410644531	1347.491455078125	
79	0.52	691.0652465820313	75.80828094482422	1042.852783203125	709.9616088867188	87.01822662353516	1127.599853515625	805.5261840820313	955.38232421875	1085.296264648438	716.1982421875	880.055419921875	1040.347045898438	635.8023071289063	47.54071426391602	1083.504638671875	699.7347412109375	432.6375122070313	1043.417602539063	719.34619140625	1033.03173828125	1046.884765625	719.4257202148438	495.0823669433594	1052.628051757813	723.8154907226563	486.4371337890625	1179.189331054688	841.3936157226563	41.01914596557617	1101.791259765625	841.884765625	35.31816482543945	1072.984985351563	814.7052612304688	28.79743194580078	1021.604614257813	615.8353271484375	1002.994140625	1194.118286132813	759.327880859375	419.9283447265625	1087.079223632813	689.2943115234375	72.88875579833984	1399.369140625	705.8530883789063	91.73870849609375	1314.271484375	809.1820068359375	954.4020385742188	1363.623657226563	705.6929931640625	888.155029296875	1405.06787109375	636.8735961914063	49.63105392456055	1349.494873046875	712.3545532226563	440.1932678222656	1404.057373046875	728.5899658203125	1032.763305664063	1404.154052734375	729.1953735351563	495.8127136230469	1395.009643554688	730.8095703125	481.6531066894531	1270.371459960938	842.3012084960938	43.29055023193359	1341.90478515625	842.4474487304688	38.02597045898438	1365.01025390625	809.9959106445313	31.65665817260742	1416.173950195313	617.6364135742188	1000.999145507813	1264.166015625	768.5784301757813	423.4561157226563	1347.455810546875	
80	0.5266666666666667	691.077392578125	75.79691314697266	1042.854858398438	709.9711303710938	87.01183319091797	1127.598510742188	805.5956420898438	955.3882446289063	1085.301147460938	716.3176879882813	880.0438842773438	1040.332763671875	635.8087768554688	47.53812026977539	1083.5087890625	699.8121948242188	432.6390991210938	1043.4033203125	719.461181640625	1033.0439453125	1046.866088867188	719.5228271484375	495.0546569824219	1052.613647460938	723.8756713867188	486.437255859375	1179.196655273438	841.402099609375	41.01504135131836	1101.803588867188	841.8887329101563	35.31354522705078	1072.992919921875	814.7048950195313	28.78659248352051	1021.603515625	615.9302368164063	1002.998779296875	1194.084350585938	759.4083862304688	419.9140014648438	1087.075561523438	689.2847290039063	72.89098358154297	1399.35888671875	705.8651733398438	91.72967529296875	1314.27001953125	809.2540283203125	954.4176025390625	1363.613525390625	705.7496337890625	888.158935546875	1405.048828125	636.876708984375	49.62751770019531	1349.486206054688	712.380859375	440.2081604003906	1404.036254882813	728.6688232421875	1032.775756835938	1404.12109375	729.2177124023438	495.8115234375	1395.010009765625	730.861572265625	481.6443176269531	1270.3662109375	842.3028564453125	43.28750991821289	1341.888916015625	842.453369140625	38.01409149169922	1365.023071289063	809.996337890625	31.64649200439453	1416.182861328125	617.7203369140625	1001.006774902344	1264.121337890625	768.6076049804688	423.4579162597656	1347.443969726563	
81	0.5333333333333333	691.0828247070313	75.8046875	1042.851318359375	709.9739379882813	87.00696563720703	1127.59765625	805.6712646484375	955.3904418945313	1085.3046875	716.4276123046875	880.042724609375	1040.319213867188	635.814697265625	47.54999542236328	1083.497436523438	699.9114990234375	432.6292724609375	1043.397705078125	719.605224609375	1033.041259765625	1046.85498046875	719.6227416992188	495.0457458496094	1052.605834960938	723.9529418945313	486.4428100585938	1179.169799804688	841.4130859375	41.00942230224609	1101.79833984375	841.8894653320313	35.3109245300293	1072.986328125	814.7030639648438	28.78683280944824	1021.597106933594	616.0439453125	1003.005432128906	1194.03662109375	759.4910278320313	419.8888549804688	1087.069580078125	689.2926635742188	72.89552307128906	1399.357421875	705.8701782226563	91.73939514160156	1314.254760742188	809.3251953125	954.4186401367188	1363.589111328125	705.8139038085938	888.1485595703125	1405.014404296875	636.8781127929688	49.63492965698242	1349.483032226563	712.3988037109375	440.2034912109375	1404.024658203125	728.7243041992188	1032.7861328125	1404.094360351563	729.2418212890625	495.8135681152344	1395.006225585938	730.9119873046875	481.64990234375	1270.35546875	842.3190307617188	43.2675666809082	1341.87646484375	842.456298828125	37.99155044555664	1365.029907226563	809.9938354492188	31.6433219909668	1416.182495117188	617.802490234375	1001.00537109375	1264.097900390625	768.6486206054688	423.4595336914063	1347.433715820313	
82	0.54	691.0842895507813	75.79925537109375	1042.852294921875	709.9732055664063	87.00291442871094	1127.607299804688	805.7592163085938	955.3720703125	1085.290405273438	716.525634765625	880.0342407226563	1040.294067382813	635.8123779296875	47.54274749755859	1083.511474609375	699.9869384765625	432.6292724609375	1043.387329101563	719.7513427734375	1033.0458984375	1046.841064453125	719.73095703125	495.0342712402344	1052.590576171875	724.0298461914063	486.4276428222656	1179.1640625	841.4114990234375	40.99412536621094	1101.81982421875	841.9005737304688	35.30060958862305	1072.99072265625	814.7090454101563	28.78535270690918	1021.599365234375	616.1338500976563	1003.000122070313	1193.980224609375	759.5835571289063	419.8800964355469	1087.057861328125	689.2886962890625	72.89373016357422	1399.346069335938	705.8720703125	91.73141479492188	1314.259399414063	809.3934936523438	954.4114379882813	1363.571411132813	705.8678588867188	888.1459350585938	1405.003051757813	636.8809204101563	49.65098571777344	1349.4755859375	712.41162109375	440.2056884765625	1404.012451171875	728.8003540039063	1032.791625976563	1404.0703125	729.2531127929688	495.8190307617188	1394.993408203125	730.972900390625	481.6441955566406	1270.354858398438	842.311279296875	43.25565338134766	1341.863647460938	842.4639892578125	37.97267150878906	1365.03564453125	810.0042114257813	31.63163566589355	1416.182495117188	617.8924560546875	1001.005981445313	1264.050415039063	768.682861328125	423.4514770507813	1347.433959960938	
83	0.5466666666666667	691.0823974609375	75.79965209960938	1042.854858398438	709.9720458984375	87.00244903564453	1127.603637695313	805.8622436523438	955.369140625	1085.278442382813	716.6505737304688	880.0256958007813	1040.287841796875	635.8164672851563	47.54062271118164	1083.509765625	700.0873413085938	432.6189880371094	1043.378540039063	719.9158325195313	1033.037719726563	1046.830810546875	719.830810546875	495.0256958007813	1052.585815429688	724.1195678710938	486.4327392578125	1179.146118164063	841.4157104492188	40.98167419433594	1101.827514648438	841.9002685546875	35.29636764526367	1073.005615234375	814.7174072265625	28.77767181396484	1021.604736328125	616.2708129882813	1002.996643066406	1193.95458984375	759.6779174804688	419.8636169433594	1087.047119140625	689.2867431640625	72.89547729492188	1399.332763671875	705.9722900390625	91.80018615722656	1314.056030273438	809.4620361328125	954.4086303710938	1363.558959960938	705.9254150390625	888.1400146484375	1404.985229492188	636.8909301757813	49.64511108398438	1349.462890625	712.4371337890625	440.2103271484375	1403.995849609375	728.869140625	1032.793579101563	1404.052368164063	729.2743530273438	495.8229064941406	1394.986694335938	731.0082397460938	481.6345825195313	1270.341064453125	842.3238525390625	43.24522399902344	1341.828735351563	842.4720458984375	37.94926452636719	1365.039428710938	810.003662109375	31.62702369689941	1416.190307617188	617.9996337890625	1000.990112304688	1264.018676757813	768.7174072265625	423.4261474609375	1347.430053710938	
